REM DIRINDEX 1\2,1\3,1\4
REM DIRNAME cjc153,folder01,folder02,folder03
TITLE ""
FILE "Track31.mp3" MP3
  TRACK 01 AUDIO
    TITLE "0:"
    INDEX 01 00:00:00
  TRACK 02 AUDIO
    TITLE "4:cjc153_1891"
    INDEX 01 00:00:03
  TRACK 03 AUDIO
    TITLE "0:"
    INDEX 01 00:01:71
  TRACK 04 AUDIO
    TITLE "2:cjc153_1892"
    INDEX 01 00:02:55
  TRACK 05 AUDIO
    TITLE "0:"
    INDEX 01 00:03:63
  TRACK 06 AUDIO
    TITLE "3:cjc153_1893"
    INDEX 01 00:04:19
  TRACK 07 AUDIO
    TITLE "0:"
    INDEX 01 00:05:36
  TRACK 08 AUDIO
    TITLE "2:cjc153_1894"
    INDEX 01 00:06:04
  TRACK 09 AUDIO
    TITLE "0:"
    INDEX 01 00:07:19
  TRACK 10 AUDIO
    TITLE "3:cjc153_1895"
    INDEX 01 00:07:49
  TRACK 11 AUDIO
    TITLE "0:"
    INDEX 01 00:08:66
  TRACK 12 AUDIO
    TITLE "2:cjc153_1896"
    INDEX 01 00:09:40
  TRACK 13 AUDIO
    TITLE "0:"
    INDEX 01 00:10:47
  TRACK 14 AUDIO
    TITLE "3:cjc153_1897"
    INDEX 01 00:11:05
  TRACK 15 AUDIO
    TITLE "0:"
    INDEX 01 00:12:14
  TRACK 16 AUDIO
    TITLE "2:cjc153_1898"
    INDEX 01 00:12:60
  TRACK 17 AUDIO
    TITLE "0:"
    INDEX 01 00:13:73
  TRACK 18 AUDIO
    TITLE "3:cjc153_1899"
    INDEX 01 00:14:31
  TRACK 19 AUDIO
    TITLE "0:"
    INDEX 01 00:15:54
  TRACK 20 AUDIO
    TITLE "2:cjc153_1900"
    INDEX 01 00:16:24
  TRACK 21 AUDIO
    TITLE "0:"
    INDEX 01 00:17:39
  TRACK 22 AUDIO
    TITLE "3:cjc153_1901"
    INDEX 01 00:17:69
  TRACK 23 AUDIO
    TITLE "0:"
    INDEX 01 00:19:15
  TRACK 24 AUDIO
    TITLE "2:cjc153_1902"
    INDEX 01 00:19:60
  TRACK 25 AUDIO
    TITLE "0:"
    INDEX 01 00:21:02
  TRACK 26 AUDIO
    TITLE "3:cjc153_1903"
    INDEX 01 00:21:37
  TRACK 27 AUDIO
    TITLE "0:"
    INDEX 01 00:22:60
  TRACK 28 AUDIO
    TITLE "2:cjc153_1904"
    INDEX 01 00:23:30
  TRACK 29 AUDIO
    TITLE "0:"
    INDEX 01 00:24:43
  TRACK 30 AUDIO
    TITLE "3:cjc153_1905"
    INDEX 01 00:25:01
  TRACK 31 AUDIO
    TITLE "0:"
    INDEX 01 00:26:24
  TRACK 32 AUDIO
    TITLE "2:cjc153_1906"
    INDEX 01 00:26:69
  TRACK 33 AUDIO
    TITLE "0:"
    INDEX 01 00:28:06
  TRACK 34 AUDIO
    TITLE "3:cjc153_1907"
    INDEX 01 00:28:39
  TRACK 35 AUDIO
    TITLE "0:"
    INDEX 01 00:29:58
  TRACK 36 AUDIO
    TITLE "2:cjc153_1908"
    INDEX 01 00:30:26
  TRACK 37 AUDIO
    TITLE "0:"
    INDEX 01 00:31:20
  TRACK 38 AUDIO
    TITLE "3:cjc153_1909"
    INDEX 01 00:31:55
  TRACK 39 AUDIO
    TITLE "0:"
    INDEX 01 00:32:56
  TRACK 40 AUDIO
    TITLE "2:cjc153_1910"
    INDEX 01 00:33:26
  TRACK 41 AUDIO
    TITLE "0:"
    INDEX 01 00:34:24
  TRACK 42 AUDIO
    TITLE "3:cjc153_1911"
    INDEX 01 00:34:57
  TRACK 43 AUDIO
    TITLE "0:"
    INDEX 01 00:35:59
  TRACK 44 AUDIO
    TITLE "2:cjc153_1912"
    INDEX 01 00:36:31
  TRACK 45 AUDIO
    TITLE "0:"
    INDEX 01 00:37:42
  TRACK 46 AUDIO
    TITLE "3:cjc153_1913"
    INDEX 01 00:38:00
  TRACK 47 AUDIO
    TITLE "0:"
    INDEX 01 00:39:15
  TRACK 48 AUDIO
    TITLE "2:cjc153_1914"
    INDEX 01 00:39:62
  TRACK 49 AUDIO
    TITLE "0:"
    INDEX 01 00:41:06
  TRACK 50 AUDIO
    TITLE "3:cjc153_1915"
    INDEX 01 00:41:36
  TRACK 51 AUDIO
    TITLE "0:"
    INDEX 01 00:42:57
  TRACK 52 AUDIO
    TITLE "2:cjc153_1916"
    INDEX 01 00:43:27
  TRACK 53 AUDIO
    TITLE "0:"
    INDEX 01 00:44:42
  TRACK 54 AUDIO
    TITLE "3:cjc153_1917"
    INDEX 01 00:45:00
  TRACK 55 AUDIO
    TITLE "0:"
    INDEX 01 00:46:19
  TRACK 56 AUDIO
    TITLE "2:cjc153_1918"
    INDEX 01 00:46:62
  TRACK 57 AUDIO
    TITLE "0:"
    INDEX 01 00:47:62
  TRACK 58 AUDIO
    TITLE "3:cjc153_1919"
    INDEX 01 00:48:18
  TRACK 59 AUDIO
    TITLE "0:"
    INDEX 01 00:49:27
  TRACK 60 AUDIO
    TITLE "2:cjc153_1920"
    INDEX 01 00:49:72
  TRACK 61 AUDIO
    TITLE "0:"
    INDEX 01 00:51:22
  TRACK 62 AUDIO
    TITLE "3:cjc153_1921"
    INDEX 01 00:51:54
  TRACK 63 AUDIO
    TITLE "0:"
    INDEX 01 00:53:15
  TRACK 64 AUDIO
    TITLE "2:cjc153_1922"
    INDEX 01 00:53:55
  TRACK 65 AUDIO
    TITLE "0:"
    INDEX 01 00:54:64
  TRACK 66 AUDIO
    TITLE "3:cjc153_1923"
    INDEX 01 00:55:16
  TRACK 67 AUDIO
    TITLE "0:"
    INDEX 01 00:56:27
  TRACK 68 AUDIO
    TITLE "2:cjc153_1924"
    INDEX 01 00:56:72
  TRACK 69 AUDIO
    TITLE "0:"
    INDEX 01 00:58:20
  TRACK 70 AUDIO
    TITLE "3:cjc153_1925"
    INDEX 01 00:58:52
  TRACK 71 AUDIO
    TITLE "0:"
    INDEX 01 01:00:12
  TRACK 72 AUDIO
    TITLE "2:cjc153_1926"
    INDEX 01 01:00:55
  TRACK 73 AUDIO
    TITLE "0:"
    INDEX 01 01:01:60
  TRACK 74 AUDIO
    TITLE "3:cjc153_1927"
    INDEX 01 01:02:16
  TRACK 75 AUDIO
    TITLE "0:"
    INDEX 01 01:03:29
  TRACK 76 AUDIO
    TITLE "2:cjc153_1928"
    INDEX 01 01:04:00
  TRACK 77 AUDIO
    TITLE "0:"
    INDEX 01 01:05:07
  TRACK 78 AUDIO
    TITLE "3:cjc153_1929"
    INDEX 01 01:05:42
  TRACK 79 AUDIO
    TITLE "0:"
    INDEX 01 01:06:61
  TRACK 80 AUDIO
    TITLE "2:cjc153_1930"
    INDEX 01 01:07:31
  TRACK 81 AUDIO
    TITLE "0:"
    INDEX 01 01:08:38
  TRACK 82 AUDIO
    TITLE "3:cjc153_1931"
    INDEX 01 01:08:72
  TRACK 83 AUDIO
    TITLE "0:"
    INDEX 01 01:10:10
  TRACK 84 AUDIO
    TITLE "2:cjc153_1932"
    INDEX 01 01:10:53
  TRACK 85 AUDIO
    TITLE "0:"
    INDEX 01 01:12:09
  TRACK 86 AUDIO
    TITLE "3:cjc153_1933"
    INDEX 01 01:12:42
  TRACK 87 AUDIO
    TITLE "0:"
    INDEX 01 01:14:02
  TRACK 88 AUDIO
    TITLE "2:cjc153_1934"
    INDEX 01 01:14:47
  TRACK 89 AUDIO
    TITLE "0:"
    INDEX 01 01:15:68
  TRACK 90 AUDIO
    TITLE "3:cjc153_1935"
    INDEX 01 01:16:26
  TRACK 91 AUDIO
    TITLE "0:"
    INDEX 01 01:17:53
  TRACK 92 AUDIO
    TITLE "2:cjc153_1936"
    INDEX 01 01:18:21
  TRACK 93 AUDIO
    TITLE "0:"
    INDEX 01 01:19:52
  TRACK 94 AUDIO
    TITLE "3:cjc153_1937"
    INDEX 01 01:20:08
  TRACK 95 AUDIO
    TITLE "0:"
    INDEX 01 01:21:47
  TRACK 96 AUDIO
    TITLE "2:cjc153_1938"
    INDEX 01 01:22:17
  TRACK 97 AUDIO
    TITLE "0:"
    INDEX 01 01:23:30
  TRACK 98 AUDIO
    TITLE "3:cjc153_1939"
    INDEX 01 01:23:62
  TRACK 99 AUDIO
    TITLE "0:"
    INDEX 01 01:25:04
  TRACK 100 AUDIO
    TITLE "2:cjc153_1940"
    INDEX 01 01:25:49
  TRACK 101 AUDIO
    TITLE "0:"
    INDEX 01 01:26:56
  TRACK 102 AUDIO
    TITLE "3:cjc153_1941"
    INDEX 01 01:27:12
  TRACK 103 AUDIO
    TITLE "0:"
    INDEX 01 01:28:20
  TRACK 104 AUDIO
    TITLE "2:cjc153_1942"
    INDEX 01 01:28:67
  TRACK 105 AUDIO
    TITLE "0:"
    INDEX 01 01:30:13
  TRACK 106 AUDIO
    TITLE "3:cjc153_1943"
    INDEX 01 01:30:46
  TRACK 107 AUDIO
    TITLE "0:"
    INDEX 01 01:32:02
  TRACK 108 AUDIO
    TITLE "2:cjc153_1944"
    INDEX 01 01:32:47
  TRACK 109 AUDIO
    TITLE "0:"
    INDEX 01 01:33:60
  TRACK 110 AUDIO
    TITLE "3:cjc153_1945"
    INDEX 01 01:34:16
  TRACK 111 AUDIO
    TITLE "0:"
    INDEX 01 01:35:33
  TRACK 112 AUDIO
    TITLE "2:cjc153_1946"
    INDEX 01 01:36:05
  TRACK 113 AUDIO
    TITLE "0:"
    INDEX 01 01:37:09
  TRACK 114 AUDIO
    TITLE "3:cjc153_1947"
    INDEX 01 01:37:42
  TRACK 115 AUDIO
    TITLE "0:"
    INDEX 01 01:38:55
  TRACK 116 AUDIO
    TITLE "2:cjc153_1948"
    INDEX 01 01:39:25
  TRACK 117 AUDIO
    TITLE "0:"
    INDEX 01 01:40:60
  TRACK 118 AUDIO
    TITLE "3:cjc153_1949"
    INDEX 01 01:41:16
  TRACK 119 AUDIO
    TITLE "0:"
    INDEX 01 01:42:55
  TRACK 120 AUDIO
    TITLE "2:cjc153_1950"
    INDEX 01 01:43:25
  TRACK 121 AUDIO
    TITLE "0:"
    INDEX 01 01:44:44
  TRACK 122 AUDIO
    TITLE "3:cjc153_1951"
    INDEX 01 01:45:02
  TRACK 123 AUDIO
    TITLE "0:"
    INDEX 01 01:46:25
  TRACK 124 AUDIO
    TITLE "2:cjc153_1952"
    INDEX 01 01:46:68
  TRACK 125 AUDIO
    TITLE "0:"
    INDEX 01 01:48:05
  TRACK 126 AUDIO
    TITLE "3:cjc153_1953"
    INDEX 01 01:48:40
  TRACK 127 AUDIO
    TITLE "0:"
    INDEX 01 01:49:59
  TRACK 128 AUDIO
    TITLE "2:cjc153_1954"
    INDEX 01 01:50:27
  TRACK 129 AUDIO
    TITLE "0:"
    INDEX 01 01:51:38
  TRACK 130 AUDIO
    TITLE "3:cjc153_1955"
    INDEX 01 01:51:70
  TRACK 131 AUDIO
    TITLE "0:"
    INDEX 01 01:53:12
  TRACK 132 AUDIO
    TITLE "2:cjc153_1956"
    INDEX 01 01:53:57
  TRACK 133 AUDIO
    TITLE "0:"
    INDEX 01 01:54:64
  TRACK 134 AUDIO
    TITLE "3:cjc153_1957"
    INDEX 01 01:55:22
  TRACK 135 AUDIO
    TITLE "0:"
    INDEX 01 01:56:36
  TRACK 136 AUDIO
    TITLE "2:cjc153_1958"
    INDEX 01 01:57:04
  TRACK 137 AUDIO
    TITLE "0:"
    INDEX 01 01:58:09
  TRACK 138 AUDIO
    TITLE "3:cjc153_1959"
    INDEX 01 01:58:42
  TRACK 139 AUDIO
    TITLE "0:"
    INDEX 01 01:59:46
  TRACK 140 AUDIO
    TITLE "2:cjc153_1960"
    INDEX 01 02:00:20
  TRACK 141 AUDIO
    TITLE "0:"
    INDEX 01 02:01:39
  TRACK 142 AUDIO
    TITLE "3:cjc153_1961"
    INDEX 01 02:01:72
  TRACK 143 AUDIO
    TITLE "0:"
    INDEX 01 02:03:22
  TRACK 144 AUDIO
    TITLE "2:cjc153_1962"
    INDEX 01 02:03:67
  TRACK 145 AUDIO
    TITLE "0:"
    INDEX 01 02:04:70
  TRACK 146 AUDIO
    TITLE "3:cjc153_1963"
    INDEX 01 02:05:27
  TRACK 147 AUDIO
    TITLE "0:"
    INDEX 01 02:06:36
  TRACK 148 AUDIO
    TITLE "2:cjc153_1964"
    INDEX 01 02:07:06
  TRACK 149 AUDIO
    TITLE "0:"
    INDEX 01 02:08:11
  TRACK 150 AUDIO
    TITLE "3:cjc153_1965"
    INDEX 01 02:08:45
  TRACK 151 AUDIO
    TITLE "0:"
    INDEX 01 02:09:56
